# xmcd
#
# Track frame offsets:
#	150
#	22374
#	59291
#	95935
#	108625
#	122435
#	146895
#	178442
#	202033
#
# Disc length: 2848
#
# Revision: 1
# Processed by: cddbd v1.5.1PL0 Copyright (c) Steve Scherf et al.
# Submitted via: CDex 1.50
# Normalized: r0:TDELIM( - )
#
DISCID=950b1e09
DTITLE=Albom - New Year Jazz
DYEAR=2004
DGENRE=Jazz
TTITLE0=Scott Hamilton - Jump for Joy
TTITLE1=Hank Mobley - Recardo Bossa Nova
TTITLE2=Quincy Jones - Hummin
TTITLE3=Chet Baker and Crew - Line for lyons
TTITLE4=Woody Herman - Caldonia
TTITLE5=Hank Mobley - Take your pick
TTITLE6=Scott Hammilton - Love you madly
TTITLE7=Chet Baker and Crew - To Mickey's Memory
TTITLE8=Quincy Jones - Love theme from "The get away"
EXTD=YEAR: 2004
EXTT0=
EXTT1=
EXTT2=
EXTT3=
EXTT4=
EXTT5=
EXTT6=
EXTT7=
EXTT8=
PLAYORDER=
